<?xml version="1.0" standalone="no"?>
<!DOCTYPE svg PUBLIC "-//W3C//DTD SVG 20010904//EN"
 "http://www.w3.org/TR/2001/REC-SVG-20010904/DTD/svg10.dtd">
<svg version="1.0" xmlns="http://www.w3.org/2000/svg"
 width="1028.000000pt" height="858.000000pt" viewBox="0 0 1028.000000 858.000000"
 preserveAspectRatio="xMidYMid meet">

<g transform="translate(0.000000,858.000000) scale(0.100000,-0.100000)"
fill="#000000" stroke="none">
<path d="M5124 8465 c-25 -135 -37 -147 -156 -170 -51 -10 -96 -21 -101 -25
-4 -3 36 -15 90 -25 132 -26 143 -37 168 -172 10 -57 20 -102 21 -100 2 2 10
37 19 78 36 170 33 166 183 195 51 10 87 21 80 25 -7 4 -51 15 -98 24 -47 9
-93 22 -103 27 -24 12 -41 56 -57 143 -19 107 -26 107 -46 0z"/>
<path d="M5045 7471 c-106 -61 -279 -266 -484 -574 -302 -451 -847 -1429
-1290 -2315 l-62 -123 3 -82 3 -82 99 195 c880 1739 1522 2789 1781 2915 49
25 54 25 94 11 158 -54 359 -307 821 -1031 470 -737 717 -1093 980 -1413 l85
-103 3 60 3 61 -107 134 c-225 283 -461 625 -849 1231 -452 706 -615 928 -771
1055 -119 97 -214 116 -309 61z"/>
<path d="M5105 6693 c-70 -36 -264 -234 -418 -428 -315 -395 -825 -1153 -1351
-2006 l-127 -207 3 -72 3 -73 134 219 c950 1547 1662 2514 1851 2514 59 0 133
-52 270 -189 156 -157 236 -253 652 -786 428 -550 654 -821 876 -1055 l81 -85
1 61 c0 55 -3 63 -31 90 -37 35 -275 304 -375 424 -114 137 -337 418 -524 660
-392 508 -593 742 -726 850 -140 113 -221 134 -319 83z"/>
<path d="M5175 5917 c-188 -89 -664 -603 -1331 -1437 -152 -190 -525 -667
-538 -687 -5 -10 5 -13 42 -13 l49 0 119 153 c845 1088 1483 1809 1689 1909
43 21 45 21 90 3 119 -45 328 -236 860 -785 364 -376 662 -669 853 -839 l72
-63 0 55 0 54 -72 63 c-40 34 -374 365 -743 735 -671 673 -787 780 -908 839
-79 38 -122 41 -182 13z"/>
<path d="M5194 5117 c-185 -100 -703 -555 -1308 -1149 l-191 -187 56 -1 56 0
194 188 c767 738 1196 1102 1301 1102 82 0 262 -126 878 -614 501 -398 869
-676 892 -676 4 0 8 20 8 44 l0 43 -107 79 c-167 121 -378 284 -738 569 -421
333 -557 437 -675 515 -197 130 -259 144 -366 87z"/>
<path d="M5280 4352 c-99 -40 -228 -119 -613 -375 l-288 -192 68 -3 68 -3 245
164 c272 181 440 284 526 324 51 23 60 24 98 13 67 -20 310 -147 630 -329
l299 -171 81 0 81 0 -360 206 c-421 240 -680 372 -745 379 -30 4 -60 -1 -90
-13z"/>
<path d="M7140 2883 c-195 -26 -381 -125 -498 -266 -24 -29 -63 -92 -88 -142
-192 -387 4 -853 419 -996 288 -99 620 -31 875 180 23 19 42 41 42 47 0 7 -21
30 -47 53 l-47 40 -51 -47 c-100 -90 -228 -151 -375 -178 -98 -18 -154 -17
-248 1 -302 60 -509 325 -489 624 11 155 71 284 183 391 83 79 162 123 272
151 202 51 446 -5 633 -146 l45 -34 48 48 48 49 -53 42 c-74 58 -238 136 -339
160 -84 20 -262 33 -330 23z"/>
<path d="M646 2852 c-11 -18 -626 -1345 -632 -1364 -5 -18 -1 -19 67 -16 l73
3 231 505 c328 722 325 714 334 704 4 -5 131 -280 281 -611 l273 -603 79 0
c44 0 77 3 75 8 -2 4 -147 316 -322 695 l-318 687 -68 0 c-37 0 -70 -4 -73 -8z"/>
<path d="M2640 2166 l0 -696 70 0 70 0 0 294 0 295 373 3 c351 4 375 5 429 25
107 40 183 107 235 206 26 48 28 61 28 162 0 100 -2 115 -28 167 -51 103 -146
178 -272 216 -40 12 -139 16 -477 19 l-428 5 0 -696z m826 553 c145 -27 242
-129 244 -258 0 -76 -20 -122 -80 -183 -89 -89 -99 -91 -507 -96 l-343 -4 0
276 0 276 313 0 c183 0 338 -5 373 -11z"/>
<path d="M5070 2165 l0 -695 70 0 70 0 0 695 0 695 -70 0 -70 0 0 -695z"/>
<path d="M9120 2165 l0 -695 580 0 580 0 0 65 0 65 -510 0 -510 0 2 268 3 267
293 3 292 2 0 60 0 60 -292 2 -293 3 0 230 0 230 483 3 482 2 0 65 0 65 -555
0 -555 0 0 -695z"/>
<path d="M1747 616 c-93 -34 -147 -110 -147 -208 0 -74 32 -133 93 -175 84
-57 202 -54 287 8 34 25 39 33 29 45 -10 12 -14 13 -28 0 -57 -50 -161 -71
-228 -45 -62 23 -113 99 -113 169 0 70 51 146 113 169 60 23 151 9 208 -30 23
-16 29 -17 38 -5 16 19 -26 51 -92 71 -62 18 -110 18 -160 1z"/>
<path d="M2507 616 c-100 -37 -152 -116 -145 -220 5 -79 38 -133 105 -173 99
-58 242 -28 308 66 27 39 30 50 30 121 0 71 -3 82 -30 121 -54 78 -181 118
-268 85z m187 -59 c141 -108 69 -327 -108 -327 -80 0 -131 31 -167 102 -35 69
-17 159 43 215 36 34 67 43 134 40 49 -2 69 -8 98 -30z"/>
<path d="M4069 621 c-45 -14 -68 -31 -84 -61 -28 -55 -12 -110 39 -134 17 -8
76 -19 130 -25 134 -14 174 -44 146 -111 -18 -44 -68 -63 -155 -58 -60 3 -81
9 -123 35 -42 26 -53 29 -62 18 -25 -30 118 -95 204 -95 112 2 193 65 183 143
-10 71 -48 94 -181 106 -91 9 -133 22 -148 45 -15 22 -7 48 22 78 29 29 34 30
103 26 49 -2 85 -10 114 -25 34 -18 43 -20 53 -8 8 10 3 17 -22 33 -58 36
-158 51 -219 33z"/>
<path d="M6877 616 c-100 -37 -152 -116 -145 -220 5 -79 38 -133 105 -173 99
-58 242 -28 308 66 27 39 30 50 30 121 0 71 -3 82 -30 121 -54 78 -181 118
-268 85z m187 -59 c141 -108 69 -327 -108 -327 -80 0 -131 31 -167 102 -35 69
-17 159 43 215 36 34 67 43 134 40 49 -2 69 -8 98 -30z"/>
<path d="M3200 410 c0 -202 1 -210 20 -210 19 0 20 8 22 172 l3 172 143 -172
c94 -113 150 -172 163 -172 18 0 19 10 19 210 0 202 -1 210 -20 210 -19 0 -20
-8 -22 -172 l-3 -172 -143 172 c-94 113 -150 172 -163 172 -18 0 -19 -10 -19
-210z"/>
<path d="M4712 456 c3 -149 5 -167 24 -193 37 -49 81 -68 159 -68 78 0 122 19
159 68 19 26 21 44 24 193 3 158 3 164 -17 164 -19 0 -20 -8 -23 -160 l-3
-160 -33 -32 c-31 -31 -36 -33 -107 -33 -71 0 -76 2 -107 33 l-33 32 -3 160
c-3 152 -4 160 -23 160 -20 0 -20 -6 -17 -164z"/>
<path d="M5490 410 l0 -210 155 0 c148 0 155 1 155 20 0 19 -7 20 -135 20
l-135 0 0 190 c0 183 -1 190 -20 190 -19 0 -20 -7 -20 -210z"/>
<path d="M6050 600 c0 -18 7 -20 80 -20 l80 0 0 -190 c0 -183 1 -190 20 -190
19 0 20 7 20 190 l0 190 80 0 c73 0 80 2 80 20 0 19 -7 20 -180 20 -173 0
-180 -1 -180 -20z"/>
<path d="M7560 410 c0 -203 1 -210 20 -210 19 0 20 7 20 90 l0 90 98 0 97 0
50 -90 c40 -72 55 -90 73 -90 26 0 27 -3 -39 112 -44 75 -45 78 -24 78 8 0 29
13 47 29 29 26 33 36 33 79 0 36 -6 56 -20 72 -36 41 -75 50 -220 50 l-135 0
0 -210z m308 150 c12 -11 24 -31 28 -44 7 -28 -18 -81 -41 -90 -9 -3 -70 -6
-136 -6 l-119 0 0 80 0 80 123 0 c110 0 126 -2 145 -20z"/>
<path d="M8436 568 c-13 -29 -56 -122 -95 -206 -39 -85 -71 -156 -71 -158 0
-2 9 -4 20 -4 15 0 28 17 51 70 l32 70 107 0 107 0 31 -70 c24 -54 36 -70 51
-70 12 0 21 3 21 8 -1 4 -42 97 -93 207 -108 233 -120 244 -161 153z m89 -90
c20 -46 39 -89 42 -95 4 -10 -17 -13 -87 -13 -70 0 -91 3 -87 13 26 65 81 177
87 177 4 0 24 -37 45 -82z"/>
</g>
</svg>
