<?xml version="1.0" standalone="no"?>
<!DOCTYPE svg PUBLIC "-//W3C//DTD SVG 20010904//EN"
 "http://www.w3.org/TR/2001/REC-SVG-20010904/DTD/svg10.dtd">
<svg version="1.0" xmlns="http://www.w3.org/2000/svg"
 width="804.000000pt" height="795.000000pt" viewBox="0 0 804.000000 795.000000"
 preserveAspectRatio="xMidYMid meet">

<g transform="translate(0.000000,795.000000) scale(0.100000,-0.100000)"
fill="#000000" stroke="none">
<path d="M4001 7563 c-18 -87 -39 -169 -48 -181 -20 -33 -56 -45 -225 -78 -82
-15 -145 -31 -140 -35 4 -3 72 -19 152 -34 156 -30 192 -43 214 -78 8 -12 29
-93 47 -180 18 -87 36 -152 40 -145 4 7 19 74 34 148 32 160 48 198 89 215 17
7 97 25 179 41 81 15 147 31 147 34 0 3 -73 20 -162 38 -214 42 -207 35 -250
242 -17 85 -34 158 -38 163 -3 4 -21 -64 -39 -150z"/>
<path d="M3945 6083 c-79 -33 -152 -89 -270 -207 -66 -67 -155 -164 -196 -216
-516 -646 -1264 -1911 -2245 -3796 l-214 -411 0 -134 0 -134 79 150 c43 83
169 326 281 540 1381 2655 2355 4146 2681 4102 103 -14 263 -133 413 -306 248
-287 441 -563 1121 -1606 557 -854 912 -1352 1298 -1815 l162 -195 3 93 c2 77
0 97 -15 116 -10 13 -78 97 -152 187 -353 431 -684 903 -1341 1909 -631 966
-827 1237 -1069 1481 -178 177 -297 249 -425 256 -50 2 -83 -2 -111 -14z"/>
<path d="M4037 4886 c-253 -94 -728 -641 -1444 -1661 -391 -557 -954 -1413
-1441 -2191 l-133 -211 3 -112 3 -113 199 319 c728 1161 1422 2195 1908 2841
452 601 789 959 950 1011 100 33 263 -72 510 -327 219 -226 353 -388 1183
-1432 354 -445 666 -817 919 -1095 131 -144 353 -375 361 -375 3 0 5 37 5 83
l-1 82 -131 140 c-376 402 -682 767 -1408 1685 -646 816 -916 1115 -1152 1272
-125 83 -249 115 -331 84z"/>
<path d="M4155 3693 c-143 -32 -379 -227 -763 -626 -468 -487 -1177 -1325
-2001 -2365 -127 -161 -234 -299 -238 -307 -4 -12 8 -15 68 -15 l74 0 180 228
c1312 1660 2288 2747 2638 2938 85 46 156 29 302 -71 204 -140 316 -245 1225
-1150 443 -441 874 -866 959 -944 180 -167 438 -395 452 -399 5 -2 9 30 8 75
l-1 78 -101 89 c-259 227 -553 510 -1182 1142 -856 859 -1034 1027 -1260 1189
-145 104 -282 157 -360 138z"/>
<path d="M4128 2447 c-309 -159 -1114 -856 -2263 -1960 l-110 -106 90 0 90 0
191 182 c975 932 1699 1562 2015 1752 74 44 89 50 138 50 135 -2 399 -181
1320 -899 687 -535 1426 -1086 1455 -1086 4 0 6 32 4 72 l-3 72 -160 114
c-272 195 -599 442 -1145 867 -836 651 -1083 828 -1289 929 -90 44 -115 51
-176 54 -67 4 -75 2 -157 -41z"/>
<path d="M4270 1276 c-159 -59 -516 -274 -1105 -665 l-340 -226 107 -3 107 -3
223 149 c588 392 1010 642 1085 642 92 0 375 -142 1184 -596 l345 -194 119 0
c71 0 115 4 109 9 -5 5 -209 121 -454 259 -1076 603 -1241 679 -1380 628z"/>
</g>
</svg>
