<?xml version="1.0" standalone="no"?>
<!DOCTYPE svg PUBLIC "-//W3C//DTD SVG 20010904//EN"
 "http://www.w3.org/TR/2001/REC-SVG-20010904/DTD/svg10.dtd">
<svg version="1.0" xmlns="http://www.w3.org/2000/svg"
 width="2168.000000pt" height="604.000000pt" viewBox="0 0 2168.000000 604.000000"
 preserveAspectRatio="xMidYMid meet">

<g transform="translate(0.000000,604.000000) scale(0.100000,-0.100000)"
fill="#000000" stroke="none">
<path d="M15025 6019 c-105 -14 -263 -54 -367 -94 -491 -190 -835 -581 -955
-1085 -30 -130 -42 -394 -24 -535 88 -670 593 -1183 1292 -1311 119 -21 372
-29 504 -15 354 38 691 173 980 392 50 37 115 90 145 117 l55 50 -99 93 c-54
52 -101 95 -105 96 -3 1 -42 -29 -86 -68 -167 -147 -378 -269 -582 -338 -299
-100 -638 -107 -911 -19 -206 65 -358 155 -508 300 -238 230 -366 516 -381
853 -22 496 263 970 712 1185 393 188 885 166 1331 -58 95 -48 241 -144 304
-200 l45 -40 100 96 c55 54 100 100 100 103 0 13 -115 105 -215 171 -242 162
-539 269 -850 307 -99 13 -385 12 -485 0z"/>
<path d="M690 4515 c-371 -801 -676 -1460 -678 -1465 -2 -6 56 -10 151 -10
l155 0 202 448 c297 654 970 2125 976 2131 2 3 11 -2 18 -10 7 -8 223 -475
479 -1039 256 -564 517 -1137 580 -1275 l115 -250 166 -3 166 -2 -15 32 c-9
18 -314 677 -679 1463 l-663 1430 -149 3 -149 2 -675 -1455z"/>
<path d="M5560 4506 l0 -1466 150 0 150 0 0 625 0 625 703 0 c566 0 721 3 799
15 321 48 563 217 689 480 49 103 68 177 76 295 15 241 -63 439 -241 615 -102
101 -197 161 -329 206 -181 62 -169 61 -1124 66 l-873 4 0 -1465z m1687 1183
c227 -25 387 -113 491 -269 144 -216 114 -491 -75 -677 -82 -81 -169 -129
-298 -165 -79 -22 -93 -22 -792 -26 l-713 -3 0 576 0 575 645 0 c395 0 683 -4
742 -11z"/>
<path d="M10700 4505 l0 -1465 150 0 150 0 0 1465 0 1465 -150 0 -150 0 0
-1465z"/>
<path d="M19240 4505 l0 -1465 1215 0 1215 0 0 135 0 135 -1065 0 -1065 0 0
575 0 575 615 0 615 0 0 130 0 130 -615 0 -615 0 0 490 0 490 1015 0 1015 0 0
135 0 135 -1165 0 -1165 0 0 -1465z"/>
<path d="M3963 1275 c-248 -67 -391 -307 -327 -550 73 -281 402 -416 693 -284
36 16 89 48 119 70 l54 41 -31 31 -30 31 -41 -33 c-272 -219 -643 -96 -686
226 -7 55 13 148 45 211 30 59 99 122 171 156 59 28 74 31 165 31 116 -1 186
-21 273 -82 l53 -36 30 29 30 29 -28 23 c-48 40 -163 93 -232 108 -83 17 -191
17 -258 -1z"/>
<path d="M5520 1272 c-280 -73 -419 -371 -293 -628 57 -116 176 -209 303 -238
129 -30 238 -17 352 40 272 136 331 491 118 704 -121 121 -305 168 -480 122z
m303 -100 c282 -139 281 -526 -1 -664 -62 -31 -74 -33 -167 -33 -93 0 -105 2
-167 33 -134 66 -211 188 -211 332 0 99 28 172 95 246 84 91 169 125 299 121
74 -3 96 -8 152 -35z"/>
<path d="M8695 1276 c-113 -28 -184 -89 -205 -178 -19 -78 -6 -135 44 -184 53
-53 109 -70 279 -84 231 -19 292 -37 335 -100 23 -35 29 -91 13 -132 -29 -76
-143 -128 -283 -128 -132 0 -232 34 -336 113 l-53 40 -24 -23 c-14 -13 -25
-28 -25 -35 0 -15 85 -77 150 -110 80 -41 136 -55 236 -62 198 -13 352 47 410
160 25 48 30 139 10 191 -42 110 -127 147 -381 166 -232 17 -290 45 -290 140
0 58 24 95 82 127 108 61 321 39 445 -44 l43 -30 27 33 28 32 -23 14 c-139 92
-336 130 -482 94z"/>
<path d="M14480 1272 c-280 -73 -419 -371 -293 -628 57 -116 176 -209 303
-238 129 -30 238 -17 352 40 272 136 331 491 118 704 -121 121 -305 168 -480
122z m303 -100 c282 -139 281 -526 -1 -664 -62 -31 -74 -33 -167 -33 -93 0
-105 2 -167 33 -134 66 -211 188 -211 332 0 99 28 172 95 246 84 91 169 125
299 121 74 -3 96 -8 152 -35z"/>
<path d="M6910 840 l0 -430 45 0 45 0 2 349 3 350 289 -350 289 -349 44 0 43
0 0 430 0 430 -45 0 -45 0 -2 -351 -3 -351 -290 351 -290 351 -42 0 -43 0 0
-430z"/>
<path d="M10020 967 c0 -338 5 -372 63 -449 50 -66 158 -117 263 -125 205 -15
364 70 409 219 12 41 15 112 15 355 l0 303 -45 0 -45 0 0 -297 c0 -185 -4
-313 -11 -338 -16 -57 -93 -129 -160 -149 -115 -34 -250 -12 -321 52 -76 69
-78 76 -78 425 l0 307 -45 0 -45 0 0 -303z"/>
<path d="M11620 840 l0 -430 320 0 320 0 0 40 0 40 -275 0 -275 0 0 390 0 390
-45 0 -45 0 0 -430z"/>
<path d="M12760 1230 l0 -40 165 0 165 0 0 -390 0 -390 45 0 45 0 0 390 0 390
165 0 165 0 0 40 0 40 -375 0 -375 0 0 -40z"/>
<path d="M15870 841 l0 -431 45 0 45 0 0 180 0 180 193 0 192 0 100 -180 100
-179 52 -1 52 0 -104 181 c-58 100 -102 185 -100 189 3 4 16 11 31 14 85 22
152 107 161 206 10 105 -36 188 -131 238 l-51 27 -292 3 -293 3 0 -430z m600
322 c104 -64 105 -213 3 -283 -36 -25 -40 -25 -275 -28 l-238 -3 0 171 0 171
238 -3 c224 -3 239 -4 272 -25z"/>
<path d="M17701 1208 c-45 -100 -352 -761 -362 -780 -9 -16 -4 -18 39 -18 l48
0 61 137 61 138 223 0 223 0 62 -135 62 -135 51 -3 50 -3 -64 138 c-35 76
-124 269 -198 428 l-134 290 -47 3 -46 3 -29 -63z m169 -248 l88 -195 -180 -3
c-100 -1 -183 0 -185 2 -7 7 171 396 180 393 4 -1 48 -90 97 -197z"/>
</g>
</svg>
